<svg width="158" height="36" viewBox="0 0 158 36" fill="none" xmlns="http://www.w3.org/2000/svg">
<path fill-rule="evenodd" clip-rule="evenodd" d="M55.3145 28.0529H58.3394V26.3078C58.7032 26.7704 58.9706 27.0255 59.3888 27.2961C60.4831 28.0151 62.0919 28.4453 63.5722 28.4453C68.0616 28.4453 71.5584 24.8821 71.5584 20.3384C71.5584 15.8273 67.9433 12.1108 63.5722 12.1108C61.5453 12.1108 59.7902 12.8795 58.5507 14.3045V7.52344H55.3145V28.0529ZM63.4213 15.0755C66.137 15.0755 68.3523 17.4194 68.3523 20.3082C68.3523 23.1345 66.109 25.4806 63.4213 25.4806C60.6137 25.4806 58.4602 23.2258 58.4602 20.2479C58.4602 17.3922 60.6726 15.0755 63.4213 15.0755Z" fill="white"/>
<path d="M73.3377 28.0529H76.5437V19.6141C76.5437 18.2179 76.8267 17.2326 77.3898 16.575C77.9499 15.921 78.818 15.5557 80.0703 15.4673L80.2559 15.4542V12.1712H80.0562C78.58 12.1712 77.2212 12.6817 76.3627 13.5667V12.5635H73.3377V28.0529Z" fill="white"/>
<path fill-rule="evenodd" clip-rule="evenodd" d="M93.3337 28.0529H96.3587V12.5635H93.3337V14.3389C92.1958 13.0294 90.1354 12.1712 88.0707 12.1712C85.5106 12.1712 83.4617 13.0998 81.9126 14.9278L81.9117 14.9288C80.6433 16.4447 79.9639 18.3616 79.9639 20.3686C79.9639 24.9414 83.3992 28.4453 87.8595 28.4453C90.2507 28.4453 92.1169 27.6637 93.3337 26.1259V28.0529ZM88.1311 15.1358C90.9374 15.1358 93.1224 17.4194 93.1224 20.4591C93.1224 23.1865 90.8268 25.4806 88.1311 25.4806C85.4111 25.4806 83.1699 23.1624 83.1699 20.3384C83.1699 17.4216 85.3529 15.1358 88.1311 15.1358Z" fill="white"/>
<path d="M98.9802 28.0529H102.186V12.5635H98.9802V28.0529Z" fill="white"/>
<path d="M115.365 28.0529H118.571V18.588C118.571 16.6859 117.928 15.0783 116.792 13.9459C115.655 12.8135 114.041 12.1712 112.124 12.1712C110.333 12.1712 108.863 12.7134 107.827 13.8151V12.5635H104.802V28.0529H108.068V19.6443C108.068 18.2119 108.43 17.0852 109.067 16.3202C109.7 15.5597 110.622 15.1358 111.792 15.1358C113.063 15.1358 114.199 15.7133 114.76 16.5798C115.156 17.2601 115.365 18.1844 115.365 19.6443V28.0529Z" fill="white"/>
<path d="M126.702 28.0529H129.908V15.5282H132.563V12.5635H129.908V12.069C129.908 11.5072 130.201 10.9972 130.687 10.7002L130.688 10.6999V10.6999C131.026 10.4916 131.439 10.4807 131.837 10.4807H132.369H133.025V7.52344H132.032C131.12 7.52344 130.427 7.58389 129.834 7.75375C129.236 7.92506 128.752 8.2046 128.251 8.6268L128.25 8.62796L128.249 8.62914C127.239 9.51237 126.702 10.684 126.702 12.069V12.5635H125.343V15.5282H126.702V28.0529Z" fill="white"/>
<path d="M154.202 28.0529H157.408V18.6483C157.408 16.6621 156.814 15.0383 155.714 13.9102C154.613 12.7815 153.025 12.1712 151.082 12.1712C149.869 12.1712 148.863 12.3629 148.016 12.7885C147.258 13.1689 146.64 13.7305 146.118 14.4866C145.257 13.0636 143.39 12.1712 141.394 12.1712C139.624 12.1712 138.277 12.6932 137.248 13.8328V12.5635H134.223V28.0529H137.429V19.4632C137.429 17.666 137.64 16.9157 138.281 16.2182L138.282 16.2179C138.903 15.5402 139.873 15.1358 140.941 15.1358C142.122 15.1358 143.079 15.6236 143.609 16.4614L143.61 16.4627L143.611 16.4639C143.859 16.8434 143.996 17.121 144.076 17.5287C144.159 17.9482 144.182 18.5105 144.182 19.4632V28.0529H147.388V19.4632C147.388 17.727 147.569 16.9975 148.13 16.2667C148.688 15.5703 149.681 15.1358 150.81 15.1358C151.94 15.1358 152.775 15.5029 153.332 16.2036C153.896 16.9123 154.202 17.9921 154.202 19.4632V28.0529Z" fill="white"/>
<path d="M124.667 26.0601C124.667 27.1699 123.767 28.0696 122.657 28.0696C121.548 28.0696 120.648 27.1699 120.648 26.0601C120.648 24.9503 121.548 24.0506 122.657 24.0506C123.767 24.0506 124.667 24.9503 124.667 26.0601Z" fill="white"/>
<path d="M102.591 9.53293C102.591 10.6427 101.691 11.5424 100.581 11.5424C99.4717 11.5424 98.572 10.6427 98.572 9.53293C98.572 8.42312 99.4717 7.52344 100.581 7.52344C101.691 7.52344 102.591 8.42312 102.591 9.53293Z" fill="white"/>
<path d="M24.1222 0C33.2418 0 40.9689 5.96214 43.6173 14.2006C46.2965 15.029 48.2443 17.5232 48.2443 20.4755C48.2443 23.4281 46.2965 25.9245 43.6173 26.7529C43.5407 26.7766 43.4636 26.799 43.3858 26.8198C42.8413 26.9661 42.268 27.0438 41.6761 27.0438C41.2774 27.0438 40.8896 27.0085 40.5106 26.938C41.2994 24.9373 41.7334 22.7583 41.7334 20.4755C41.7334 18.1952 41.2994 16.0162 40.5106 14.0155C37.9349 7.48468 31.5694 2.86434 24.1222 2.86434C16.6771 2.86434 10.3094 7.48468 7.73374 14.0155C7.63514 14.2655 7.54207 14.5186 7.45472 14.774C6.8432 16.5625 6.51087 18.4803 6.51087 20.4755C6.51087 22.473 6.8432 24.391 7.4562 26.1795C7.54377 26.4349 7.63707 26.6879 7.73594 26.938C7.68858 26.9468 7.64103 26.955 7.59331 26.9627C7.25932 27.0167 6.91711 27.0438 6.56816 27.0438C5.89172 27.0438 5.23954 26.9425 4.62701 26.7529C1.94774 25.9245 0 23.4281 0 20.4755C0 17.5232 1.94774 15.029 4.62701 14.2006C7.27543 5.96214 15.0025 0 24.1222 0Z" fill="white"/>
<path fill-rule="evenodd" clip-rule="evenodd" d="M39.6138 20.4755C39.6138 22.5093 39.2216 24.4504 38.5099 26.2285C36.2273 31.9374 30.6462 35.9695 24.1222 35.9695C17.5981 35.9695 12.017 31.9374 9.73436 26.2285C9.02268 24.4504 8.63048 22.5093 8.63048 20.4755C8.63048 18.442 9.02268 16.5031 9.73436 14.7249C12.017 9.01604 17.5981 4.98398 24.1222 4.98398C30.6462 4.98398 36.2273 9.01604 38.5099 14.7249C39.2216 16.5031 39.6138 18.442 39.6138 20.4755ZM24.1221 30.3288C29.5644 30.3288 33.9755 25.9178 33.9755 20.4755H14.2688C14.2688 25.9178 18.6799 30.3288 24.1221 30.3288Z" fill="white"/>
</svg>
